<svg width="24" height="24" viewBox="0 0 24 24" fill="none" xmlns="http://www.w3.org/2000/svg">
<path d="M17.4 6.39999H21.4C21.9523 6.39999 22.4 6.84771 22.4 7.39999C22.4 7.95228 21.9523 8.39999 21.4 8.39999H20.4V21.4C20.4 21.9523 19.9523 22.4 19.4 22.4H5.4C4.84772 22.4 4.4 21.9523 4.4 21.4V8.39999H3.4C2.84772 8.39999 2.4 7.95228 2.4 7.39999C2.4 6.84771 2.84772 6.39999 3.4 6.39999H7.4V3.39999C7.4 2.84771 7.84772 2.39999 8.4 2.39999H16.4C16.9523 2.39999 17.4 2.84771 17.4 3.39999V6.39999ZM18.4 8.39999H6.4V20.4H18.4V8.39999ZM9.4 12.4C9.4 11.8477 9.84772 11.4 10.4 11.4C10.9523 11.4 11.4 11.8477 11.4 12.4V16.4C11.4 16.9523 10.9523 17.4 10.4 17.4C9.84772 17.4 9.4 16.9523 9.4 16.4V12.4ZM13.4 12.4C13.4 11.8477 13.8477 11.4 14.4 11.4C14.9523 11.4 15.4 11.8477 15.4 12.4V16.4C15.4 16.9523 14.9523 17.4 14.4 17.4C13.8477 17.4 13.4 16.9523 13.4 16.4V12.4ZM9.4 4.39999V6.39999H15.4V4.39999H9.4Z" fill="#E85759"/>
</svg>
