<svg width="24" height="24" viewBox="0 0 24 24" fill="none" xmlns="http://www.w3.org/2000/svg">
<path d="M0.999985 12C0.999985 11.4477 1.4477 11 1.99998 11H22C22.5523 11 23 11.4477 23 12C23 12.5523 22.5523 13 22 13H1.99998C1.4477 13 0.999985 12.5523 0.999985 12Z" fill="#2B3033"/>
<path d="M0.999985 4C0.999985 3.44772 1.4477 3 1.99998 3H22C22.5523 3 23 3.44772 23 4C23 4.55228 22.5523 5 22 5H1.99998C1.4477 5 0.999985 4.55228 0.999985 4Z" fill="#2B3033"/>
<path d="M0.999985 20C0.999985 19.4477 1.4477 19 1.99998 19H22C22.5523 19 23 19.4477 23 20C23 20.5523 22.5523 21 22 21H1.99998C1.4477 21 0.999985 20.5523 0.999985 20Z" fill="#2B3033"/>
</svg>
