<svg width="24" height="24" viewBox="0 0 24 24" fill="none" xmlns="http://www.w3.org/2000/svg">
<path d="M12.0006 18.26L6.83893 21.1493C6.09432 21.5661 5.20336 20.9188 5.36966 20.0818L6.52248 14.2799L2.17961 10.2638C1.55311 9.6844 1.89342 8.63701 2.74082 8.53653L8.61493 7.84006L11.0925 2.46867C11.45 1.6938 12.5512 1.6938 12.9086 2.46867L15.3862 7.84006L21.2603 8.53654C22.1077 8.63701 22.448 9.68439 21.8215 10.2638L17.4787 14.2799L18.6315 20.0818C18.7978 20.9187 17.9068 21.5661 17.1622 21.1493L12.0006 18.26ZM12.0006 15.968L16.2473 18.3451L15.2988 13.5717L18.8719 10.2674L14.039 9.69434L12.0006 5.27502L9.96214 9.69434L5.12921 10.2674L8.70231 13.5717L7.75383 18.3451L12.0006 15.968Z" fill="#2B3033"/>
</svg>
